# xmcd CD database file
#
# Track frame offsets:
#	150
#	17744
#	35443
#	48050
#	64084
#	81080
#	95881
#	108272
#	122298
#	134292
#	151797
#	166375
#
# Disc length: 2389 seconds
#
# Revision: 0
# Processed by: cddbd v1.5.2PL0 Copyright (c) Steve Scherf et al.
# Submitted via: cdripper 1.0.8
#
DISCID=8c09530c
DTITLE=Sérgio Reis - 2009 - 50 Anos Cantando o Brasil - CD 3 - CD 3
DYEAR=2009
DGENRE=Country
TTITLE0=Cabocla Terreza - part, esp, João Pacífico
TTITLE1=Serafim e Seus Filhos
TTITLE2=Chalana
TTITLE3=A volta da Asa Branca
TTITLE4=Boiadeiro Errante - Sérgio Reis e Pirilampo e Saracura
TTITLE5=Saudade de Minha Terra
TTITLE6=Pagode em Brasilia
TTITLE7=Coice de Alazão
TTITLE8=Eu sei que vai chegar a hora
TTITLE9=Distância danada
TTITLE10=Meu cavalo Zaino
TTITLE11=Pé de Cedro
EXTD=YEAR: 2009
EXTT0=
EXTT1=
EXTT2=
EXTT3=
EXTT4=
EXTT5=
EXTT6=
EXTT7=
EXTT8=
EXTT9=
EXTT10=
EXTT11=
PLAYORDER=
